<?xml version="1.0" encoding="utf-8"?>
<!-- Generator: Adobe Illustrator 19.2.1, SVG Export Plug-In . SVG Version: 6.00 Build 0)  -->
<svg version="1.1" id="Layer_1" xmlns="http://www.w3.org/2000/svg" xmlns:xlink="http://www.w3.org/1999/xlink" x="0px" y="0px"
	 viewBox="0 0 284.5 285.9" style="enable-background:new 0 0 284.5 285.9;" xml:space="preserve">
<style type="text/css">
	.st0{clip-path:url(#SVGID_2_);fill:#9AC3ED;}
	.st1{clip-path:url(#SVGID_2_);fill:#4492D4;}
	.st2{clip-path:url(#SVGID_2_);fill:#FFFFFF;}
</style>
<g>
	<defs>
		<rect id="SVGID_1_" width="284.5" height="285.9"/>
	</defs>
	<clipPath id="SVGID_2_">
		<use xlink:href="#SVGID_1_"  style="overflow:visible;"/>
	</clipPath>
	<path class="st0" d="M48.5,77.3C48.5,77.3,48.5,77.3,48.5,77.3c0.5-0.1,0.9-0.1,1.4-0.2C49.5,77.1,49,77.2,48.5,77.3"/>
	<path class="st0" d="M144.5,39.6c-0.7,0.5-1.4,0.9-2.1,1.4c23.4,15.6,49.9,26.9,78.3,33.1C192.9,67.3,167.2,55.4,144.5,39.6"/>
	<path class="st0" d="M235.8,76.8c-5.1-0.7-10.2-1.7-15.2-2.7c5,1.2,10.1,2.3,15.2,3.2C235.8,77,235.8,76.8,235.8,76.8"/>
	<path class="st1" d="M142.2,251.8c-0.3,0-0.6,0-0.8-0.1c-30-10.7-55.8-30.2-74.4-56.2c-19.1-26.6-29.2-58-29.2-90.9
		c0-9,2.3-25.9,2.4-26.6c0.1-1.1,1-1.9,2.1-2.1c35.3-5.2,69.4-19,98.5-39.8c0.8-0.6,2-0.6,2.8,0c29.2,20.9,63.4,34.7,98.8,39.8
		c1.1,0.2,1.9,1,2.1,2.1c0.1,0.7,2.1,17.6,2.1,26.5c0,32.8-10.1,64.3-29.2,90.9c-18.7,26-44.4,45.5-74.4,56.2
		C142.8,251.7,142.5,251.8,142.2,251.8 M44.9,80.4c-0.6,4.6-2.1,17.1-2.1,24.1c0,63.5,40,120.5,99.5,142.2
		c59.6-21.7,99.5-78.7,99.5-142.2c0-6.9-1.3-19.4-1.8-24.1c-35-5.4-68.7-19-97.7-39.4C113.3,61.4,79.7,74.9,44.9,80.4"/>
	<path class="st1" d="M199.7,193.8c-0.5,0-1.1-0.2-1.5-0.5c-1.1-0.8-1.2-2.4-0.4-3.4c1.5-1.8,2.9-3.7,4.2-5.6
		c16.7-23.3,25.6-50.9,25.6-79.8c0-2.6-0.2-6.7-0.7-12c-29.8-6-59-17.9-84.6-34.4c-3,1.9-6.1,3.8-9.2,5.7c-1.2,0.7-2.7,0.3-3.3-0.9
		c-0.7-1.2-0.3-2.7,0.9-3.3c3.5-2,7-4.2,10.3-6.4c0.8-0.5,1.9-0.5,2.7,0c25.9,16.9,55.7,29,86,34.9c1.1,0.2,1.9,1.1,2,2.2
		c0.6,6.3,0.9,11.1,0.9,14.2c0,29.9-9.2,58.4-26.5,82.6c-1.4,2-2.9,3.9-4.4,5.8C201.1,193.5,200.4,193.8,199.7,193.8"/>
	<path class="st1" d="M142.2,236.6c-0.3,0-0.6-0.1-0.9-0.2c-25.2-10.1-46.9-27.1-62.8-49.3C61.2,162.9,52,134.4,52,104.5
		c0-3.1,0.3-7.9,1-14.3c0.1-1.1,0.9-1.9,2-2.1c16.5-3.2,32.8-8.2,48.3-14.8c1.2-0.5,2.7,0,3.2,1.3c0.5,1.2,0,2.7-1.3,3.2
		C90,84.2,74,89.2,57.7,92.5c-0.5,5.3-0.8,9.4-0.8,12c0,28.8,8.8,56.4,25.6,79.8c15.2,21.2,35.8,37.5,59.7,47.2
		c6.9-2.8,13.6-6.2,19.9-10.1c1.2-0.7,2.7-0.3,3.4,0.8c0.7,1.1,0.3,2.7-0.8,3.4c-6.8,4.2-14.1,7.8-21.5,10.8
		C142.8,236.5,142.5,236.6,142.2,236.6"/>
	<path class="st1" d="M170.3,136.6H159c-1.3,0-2.4-1.1-2.4-2.4v-14.5c0-7.6-6.2-13.8-13.8-13.8c-7.6,0-13.8,6.2-13.8,13.8v14.5
		c0,1.3-1.1,2.4-2.4,2.4h-11.3c-1.3,0-2.4-1.1-2.4-2.4v-14.5c0-16.5,13.5-30,30-30c16.5,0,30,13.4,30,30v14.5
		C172.8,135.5,171.7,136.6,170.3,136.6 M161.4,131.7h6.5v-12c0-13.8-11.3-25.1-25.1-25.1c-13.8,0-25.1,11.3-25.1,25.1v12h6.5v-12
		c0-10.3,8.4-18.6,18.6-18.6c10.3,0,18.6,8.4,18.6,18.6V131.7z"/>
	<path class="st1" d="M170.4,190.4h-55.3c-5.9,0-10.6-4.8-10.6-10.6v-37.4c0-5.9,4.8-10.6,10.6-10.6h55.3c5.9,0,10.6,4.8,10.6,10.6
		v37.4C181.1,185.6,176.3,190.4,170.4,190.4 M115.2,136.6c-3.2,0-5.8,2.6-5.8,5.8v37.4c0,3.2,2.6,5.8,5.8,5.8h55.3
		c3.2,0,5.8-2.6,5.8-5.8v-37.4c0-3.2-2.6-5.8-5.8-5.8H115.2z"/>
	<path class="st1" d="M142.8,167.7c-2.7,0-5-2.2-5-5v-6.9c-2-1.5-3.3-4-3.3-6.5c0-4.5,3.7-8.2,8.2-8.2c4.5,0,8.2,3.7,8.2,8.2
		c0,2.6-1.2,5-3.3,6.5v6.9C147.7,165.5,145.5,167.7,142.8,167.7 M142.8,144.5c-2.6,0-4.8,2.2-4.8,4.8c0,1.7,0.9,3.3,2.4,4.1
		c0.5,0.3,0.9,0.9,0.9,1.5v7.8c0,0.8,0.7,1.5,1.5,1.5c0.8,0,1.5-0.7,1.5-1.5V155c0-0.6,0.3-1.2,0.9-1.5c1.5-0.9,2.4-2.4,2.4-4.1
		C147.6,146.7,145.4,144.5,142.8,144.5"/>
	<path class="st1" d="M181.1,152.4h-12c-2,0-3.7-1.6-3.7-3.7v-0.1c0-2,1.6-3.7,3.7-3.7h12c2,0,3.7,1.6,3.7,3.7v0.1
		C184.7,150.7,183.1,152.4,181.1,152.4"/>
	<path class="st1" d="M181.1,163.9h-12c-2,0-3.7-1.6-3.7-3.7v-0.1c0-2,1.6-3.7,3.7-3.7h12c2,0,3.7,1.6,3.7,3.7v0.1
		C184.7,162.2,183.1,163.9,181.1,163.9"/>
	<path class="st1" d="M116.5,152.8h-12c-2,0-3.7-1.6-3.7-3.7v-0.1c0-2,1.6-3.7,3.7-3.7h12c2,0,3.7,1.6,3.7,3.7v0.1
		C120.2,151.2,118.6,152.8,116.5,152.8"/>
	<path class="st1" d="M116.5,163.9h-12c-2,0-3.7-1.6-3.7-3.7v-0.1c0-2,1.6-3.7,3.7-3.7h12c2,0,3.7,1.6,3.7,3.7v0.1
		C120.2,162.2,118.6,163.9,116.5,163.9"/>
	<path class="st2" d="M165.4,174.8h13.2H165.4z"/>
	<path class="st1" d="M178.6,177.3h-13.2c-1.3,0-2.4-1.1-2.4-2.4c0-1.3,1.1-2.4,2.4-2.4h13.2c1.3,0,2.4,1.1,2.4,2.4
		C181.1,176.2,180,177.3,178.6,177.3"/>
	<path class="st2" d="M107,174.8h45.2H107z"/>
	<path class="st1" d="M152.2,177.3H107c-1.3,0-2.4-1.1-2.4-2.4c0-1.3,1.1-2.4,2.4-2.4h45.2c1.3,0,2.4,1.1,2.4,2.4
		C154.6,176.2,153.5,177.3,152.2,177.3"/>
	<path class="st0" d="M227.4,65.7c-0.6,0-1.3-0.3-1.8-0.8c-14.1-14.9-32-25.8-51.6-31.5c-1.3-0.4-2-1.7-1.7-3c0.4-1.3,1.7-2,3-1.7
		c20.5,5.9,39.1,17.2,53.8,32.8c0.9,1,0.9,2.5-0.1,3.5C228.6,65.5,228,65.7,227.4,65.7"/>
	<path class="st0" d="M133.2,29.3c-1.3,0-2.3-1-2.4-2.3c-0.1-1.3,0.9-2.5,2.2-2.6c5.4-0.4,11-0.5,16.5-0.1c1.3,0.1,2.4,1.2,2.3,2.6
		c-0.1,1.3-1.2,2.4-2.6,2.3c-5.2-0.3-10.6-0.3-15.8,0.1C133.3,29.3,133.3,29.3,133.2,29.3"/>
	<path class="st0" d="M54,69.1c-0.6,0-1.1-0.2-1.6-0.6c-1-0.9-1.1-2.4-0.2-3.4c10.8-12.3,23.7-22.2,38.4-29.2
		c1.2-0.6,2.7-0.1,3.3,1.1c0.6,1.2,0.1,2.7-1.1,3.3C78.6,47,66.2,56.4,55.8,68.3C55.3,68.8,54.7,69.1,54,69.1"/>
	<path class="st0" d="M28.4,118.5c-0.2,0-0.4,0-0.6-0.1c-1.3-0.3-2.1-1.6-1.8-2.9c0.5-2.3,1.2-4.5,1.8-6.7c0.4-1.3,1.8-2,3-1.6
		c1.3,0.4,2,1.8,1.6,3c-0.6,2.1-1.2,4.3-1.8,6.5C30.5,117.8,29.5,118.5,28.4,118.5"/>
	<path class="st0" d="M55.8,225.2c-0.7,0-1.3-0.3-1.8-0.8c-15.4-16.8-25.6-37.6-29.6-60c-0.2-1.3,0.7-2.6,2-2.8
		c1.3-0.2,2.6,0.7,2.8,2c3.8,21.5,13.6,41.3,28.3,57.5c0.9,1,0.8,2.5-0.2,3.4C57,225,56.4,225.2,55.8,225.2"/>
	<path class="st0" d="M67.8,236.6c-0.5,0-1.1-0.2-1.6-0.6c-1-0.9-2.1-1.7-3.1-2.6c-1-0.9-1.1-2.4-0.2-3.4c0.9-1,2.4-1.1,3.4-0.2
		c1,0.9,2,1.7,3,2.5c1,0.9,1.2,2.4,0.3,3.4C69.2,236.3,68.5,236.6,67.8,236.6"/>
	<path class="st0" d="M142.2,263.2c-20.3,0-40.3-5.2-57.9-14.9c-1.2-0.7-1.6-2.1-1-3.3s2.1-1.6,3.3-1c16.9,9.4,36.1,14.3,55.5,14.3
		c3.3,0,6.6-0.1,9.8-0.4c1.3-0.1,2.5,0.9,2.6,2.2c0.1,1.3-0.9,2.5-2.2,2.6C149.1,263.1,145.7,263.2,142.2,263.2"/>
	<path class="st0" d="M180.9,256.7c-1,0-2-0.6-2.3-1.6c-0.4-1.3,0.2-2.7,1.5-3.1c2.6-0.9,5.2-1.9,7.8-3c1.2-0.5,2.7,0,3.2,1.3
		s0,2.7-1.3,3.2c-2.6,1.1-5.4,2.2-8.1,3.2C181.4,256.7,181.2,256.7,180.9,256.7"/>
	<path class="st0" d="M236,216.3c-0.5,0-1-0.2-1.5-0.5c-1.1-0.8-1.3-2.3-0.5-3.4c11.4-15.2,18.9-33.2,21.7-52
		c0.2-1.3,1.4-2.3,2.8-2.1c1.3,0.2,2.3,1.4,2.1,2.8c-2.9,19.6-10.7,38.4-22.6,54.3C237.5,216,236.7,216.3,236,216.3"/>
	<path class="st0" d="M259.3,143c-1.3,0-2.4-1.1-2.4-2.4c-0.1-3-0.3-6.1-0.6-9c-0.1-1.3,0.8-2.5,2.2-2.7c1.3-0.1,2.5,0.8,2.7,2.2
		c0.3,3.1,0.5,6.3,0.6,9.4C261.8,141.9,260.7,143,259.3,143C259.4,143,259.3,143,259.3,143"/>
	<path class="st0" d="M108.9,281.9c-0.2,0-0.4,0-0.6-0.1c-4.2-1-8.5-2.3-12.6-3.7c-1.3-0.4-1.9-1.8-1.5-3.1c0.4-1.3,1.8-2,3.1-1.5
		c4,1.4,8.1,2.6,12.2,3.6c1.3,0.3,2.1,1.6,1.8,3C111,281.2,110,281.9,108.9,281.9"/>
	<path class="st0" d="M142.2,285.9c-6.1,0-12.3-0.4-18.3-1.2c-1.3-0.2-2.3-1.4-2.1-2.7c0.2-1.3,1.4-2.3,2.7-2.1
		c5.8,0.8,11.8,1.1,17.7,1.1c26.8,0,52.7-7.7,75-22.3c1.1-0.7,2.6-0.4,3.4,0.7c0.7,1.1,0.4,2.6-0.7,3.4
		C196.8,277.9,170,285.9,142.2,285.9"/>
	<path class="st0" d="M255.4,228.1c-0.5,0-1-0.2-1.4-0.5c-1.1-0.8-1.3-2.3-0.5-3.4c1.9-2.6,3.7-5.3,5.4-8.1c0.7-1.1,2.2-1.5,3.4-0.8
		c1.1,0.7,1.5,2.2,0.8,3.4c-1.8,2.8-3.7,5.6-5.6,8.3C256.9,227.8,256.2,228.1,255.4,228.1"/>
	<path class="st0" d="M268.5,206.2c-0.4,0-0.7-0.1-1-0.2c-1.2-0.6-1.7-2-1.2-3.3c8.8-18.5,13.3-38.3,13.3-59c0-2.2-0.1-4.4-0.2-6.6
		c-0.1-1.3,1-2.5,2.3-2.6c1.3-0.1,2.5,1,2.6,2.3c0.1,2.2,0.2,4.5,0.2,6.8c0,21.4-4.6,41.9-13.8,61.1
		C270.3,205.6,269.4,206.2,268.5,206.2"/>
	<path class="st0" d="M272.5,95.4c-1,0-1.9-0.6-2.3-1.6c-1.2-3.1-2.5-6.2-4-9.2c-0.6-1.2-0.1-2.7,1.2-3.3c1.2-0.6,2.7-0.1,3.3,1.2
		c1.5,3.1,2.9,6.3,4.1,9.5c0.5,1.3-0.1,2.7-1.4,3.2C273.1,95.4,272.8,95.4,272.5,95.4"/>
	<path class="st0" d="M258.9,69.1c-0.8,0-1.6-0.4-2-1.1c-14.6-22-35-39.3-59-50c-1.2-0.5-1.8-2-1.2-3.2c0.5-1.2,2-1.8,3.2-1.2
		c24.9,11,46.1,28.9,61.1,51.7c0.7,1.1,0.4,2.6-0.7,3.4C259.9,69,259.4,69.1,258.9,69.1"/>
	<path class="st0" d="M103.2,11.8c-1.1,0-2-0.7-2.3-1.8c-0.4-1.3,0.4-2.6,1.7-3c6-1.7,12.2-3.1,18.4-4c1.3-0.2,2.6,0.7,2.8,2.1
		c0.2,1.3-0.7,2.6-2.1,2.8c-6,0.9-11.9,2.2-17.7,3.9C103.7,11.8,103.5,11.8,103.2,11.8"/>
	<path class="st0" d="M20.2,77.9c-0.4,0-0.8-0.1-1.2-0.3c-1.2-0.7-1.6-2.1-0.9-3.3c14.3-25.6,35.8-45.9,62.2-58.7
		c1.2-0.6,2.7-0.1,3.3,1.1c0.6,1.2,0.1,2.7-1.1,3.3C56.9,32.3,36.1,51.9,22.3,76.7C21.9,77.5,21,77.9,20.2,77.9"/>
	<path class="st0" d="M2.5,150.8c-1.3,0-2.4-1-2.4-2.4C0,146.8,0,145.2,0,143.7c0-2,0-3.9,0.1-5.9c0.1-1.3,1.2-2.4,2.5-2.3
		c1.3,0.1,2.4,1.2,2.3,2.5c-0.1,1.9-0.1,3.8-0.1,5.7c0,1.5,0,3.1,0.1,4.6C5,149.6,3.9,150.7,2.5,150.8
		C2.6,150.8,2.5,150.8,2.5,150.8"/>
	<path class="st0" d="M44.3,245.8c-0.6,0-1.2-0.2-1.7-0.7c-19.5-19.1-32.9-43.2-39-69.7c-0.3-1.3,0.5-2.6,1.8-2.9
		c1.3-0.3,2.6,0.5,2.9,1.8c5.8,25.5,18.9,48.8,37.6,67.3c1,0.9,1,2.5,0,3.5C45.5,245.6,44.9,245.8,44.3,245.8"/>
	<path class="st1" d="M11.6,42.1c-6,0-11-4.9-11-11c0-6,4.9-11,11-11s11,4.9,11,11C22.6,37.2,17.7,42.1,11.6,42.1 M11.6,25
		c-3.4,0-6.1,2.7-6.1,6.1c0,3.4,2.7,6.1,6.1,6.1s6.1-2.7,6.1-6.1C17.7,27.8,15,25,11.6,25"/>
	<path class="st1" d="M272.5,273.5c-6,0-11-4.9-11-11c0-6,4.9-11,11-11c6,0,11,4.9,11,11C283.5,268.6,278.6,273.5,272.5,273.5
		 M272.5,256.5c-3.4,0-6.1,2.7-6.1,6.1c0,3.4,2.7,6.1,6.1,6.1c3.4,0,6.1-2.7,6.1-6.1C278.6,259.2,275.9,256.5,272.5,256.5"/>
	<path class="st1" d="M246.3,276.4h-13.9c-1.3,0-2.4-1.1-2.4-2.4s1.1-2.4,2.4-2.4h13.9c1.3,0,2.4,1.1,2.4,2.4
		S247.6,276.4,246.3,276.4"/>
	<path class="st1" d="M239.4,283.4c-1.3,0-2.4-1.1-2.4-2.4V267c0-1.3,1.1-2.4,2.4-2.4c1.3,0,2.4,1.1,2.4,2.4v13.9
		C241.8,282.3,240.7,283.4,239.4,283.4"/>
	<path class="st1" d="M62.8,11.8H48.9c-1.3,0-2.4-1.1-2.4-2.4c0-1.3,1.1-2.4,2.4-2.4h13.9c1.3,0,2.4,1.1,2.4,2.4
		C65.2,10.7,64.1,11.8,62.8,11.8"/>
	<path class="st1" d="M55.8,18.8c-1.3,0-2.4-1.1-2.4-2.4V2.4c0-1.3,1.1-2.4,2.4-2.4c1.3,0,2.4,1.1,2.4,2.4v13.9
		C58.3,17.7,57.2,18.8,55.8,18.8"/>
	<path class="st1" d="M28.9,272.3c-0.5,0-1-0.2-1.3-0.6l-7.7-7.7c-0.7-0.7-0.7-2,0-2.7c0.7-0.7,2-0.7,2.7,0l7.7,7.7
		c0.7,0.7,0.7,2,0,2.7C29.9,272.1,29.4,272.3,28.9,272.3"/>
	<path class="st1" d="M21.3,272.3c-0.5,0-1-0.2-1.3-0.6c-0.7-0.7-0.7-2,0-2.7l7.7-7.7c0.7-0.7,2-0.7,2.7,0c0.7,0.7,0.7,2,0,2.7
		l-7.7,7.7C22.2,272.1,21.8,272.3,21.3,272.3"/>
	<path class="st1" d="M263.9,20c0,1.6-1.3,2.9-2.9,2.9c-1.6,0-2.9-1.3-2.9-2.9c0-1.6,1.3-2.9,2.9-2.9
		C262.6,17.1,263.9,18.4,263.9,20"/>
</g>
</svg>
